<svg width="512" height="250" viewBox="0 0 512 250" fill="none" xmlns="http://www.w3.org/2000/svg">
<g filter="url(#filter0_d_271_3993)">
<g clip-path="url(#clip0_271_3993)">
<rect x="4" width="504" height="242" rx="12" fill="#C4DFDF"/>
<g filter="url(#filter1_f_271_3993)">
<path d="M106.429 117.254C68.267 91.8024 45.867 91.9379 4 117.254V295.253H521.5V117.254C507.385 107.213 499.964 107.934 487.357 117.254L452.545 143.254C428.638 161.381 414.461 161.127 387.606 143.254L337.396 105.754C311.664 89.8795 298 90.2861 275.135 105.754L231.62 138.254C195.886 165.303 174.803 167.41 134.547 138.254L106.429 117.254Z" fill="#E3F4F4" fill-opacity="0.63"/>
<path d="M106.429 117.254C68.267 91.8024 45.867 91.9379 4 117.254V295.253H521.5V117.254C507.385 107.213 499.964 107.934 487.357 117.254L452.545 143.254C428.638 161.381 414.461 161.127 387.606 143.254L337.396 105.754C311.664 89.8795 298 90.2861 275.135 105.754L231.62 138.254C195.886 165.303 174.803 167.41 134.547 138.254L106.429 117.254Z" stroke="#E3F4F4" stroke-width="3"/>
</g>
</g>
</g>
<defs>
<filter id="filter0_d_271_3993" x="0" y="0" width="512" height="250" filterUnits="userSpaceOnUse" color-interpolation-filters="sRGB">
<feFlood flood-opacity="0" result="BackgroundImageFix"/>
<feColorMatrix in="SourceAlpha" type="matrix" values="0 0 0 0 0 0 0 0 0 0 0 0 0 0 0 0 0 0 127 0" result="hardAlpha"/>
<feOffset dy="4"/>
<feGaussianBlur stdDeviation="2"/>
<feComposite in2="hardAlpha" operator="out"/>
<feColorMatrix type="matrix" values="0 0 0 0 0 0 0 0 0 0 0 0 0 0 0 0 0 0 0.25 0"/>
<feBlend mode="normal" in2="BackgroundImageFix" result="effect1_dropShadow_271_3993"/>
<feBlend mode="normal" in="SourceGraphic" in2="effect1_dropShadow_271_3993" result="shape"/>
</filter>
<filter id="filter1_f_271_3993" x="-3.5" y="86.5" width="532.5" height="216.253" filterUnits="userSpaceOnUse" color-interpolation-filters="sRGB">
<feFlood flood-opacity="0" result="BackgroundImageFix"/>
<feBlend mode="normal" in="SourceGraphic" in2="BackgroundImageFix" result="shape"/>
<feGaussianBlur stdDeviation="3" result="effect1_foregroundBlur_271_3993"/>
</filter>
<clipPath id="clip0_271_3993">
<rect x="4" width="504" height="242" rx="12" fill="white"/>
</clipPath>
</defs>
</svg>
